<?xml version="1.0" encoding="UTF-8" standalone="no"?>
<!DOCTYPE svg PUBLIC "-//W3C//DTD SVG 1.1//EN" "http://www.w3.org/Graphics/SVG/1.1/DTD/svg11.dtd">
<svg width="100%" height="100%" viewBox="0 0 256 256" version="1.1" xmlns="http://www.w3.org/2000/svg" xmlns:xlink="http://www.w3.org/1999/xlink" xml:space="preserve" xmlns:serif="http://www.serif.com/" style="fill-rule:evenodd;clip-rule:evenodd;stroke-linejoin:round;stroke-miterlimit:2;">
    <g transform="matrix(3.362782,0,0,3.362782,-285.316923,-232.3298)">
        <path d="M116.025,86.488L129.83,80.772L130.745,93.956C130.745,93.956 135.743,102.986 139.003,104.965C142.263,106.945 143.909,109.503 144.025,111.715C144.142,113.928 143.326,118.058 139.545,120.186C134.758,122.88 131.616,123.351 125.328,126.727C119.041,130.104 114.57,135.049 110.494,135.748C106.419,136.447 101.273,135.924 99.41,134.876C97.547,133.828 94.257,130.877 95.25,128.492C96.74,124.916 101.057,129.109 105.49,126.053C109.4,123.359 112.686,116.746 114.2,113.951C115.713,111.157 118.125,107.481 118.65,104.024C118.983,101.828 117.908,95.797 117.052,93.432C115.864,90.147 116.025,86.488 116.025,86.488Z" style="fill:rgb(91,91,91);"/>
    </g>
    <g transform="matrix(3.362782,0,0,3.362782,-289.388957,-239.847403)">
        <path d="M116.025,86.488L131.499,80.474L132.653,95.685C132.653,95.685 135.624,103.463 138.884,105.442C142.144,107.422 144.505,110.04 144.622,112.252C144.738,114.464 144.4,117.998 140.618,120.126C135.832,122.82 132.033,123.708 125.746,127.085C119.458,130.462 114.57,135.049 110.494,135.748C106.419,136.447 101.273,135.924 99.41,134.876C97.547,133.828 95.751,132.367 96.744,129.982C98.234,126.406 101.057,129.109 105.49,126.053C109.4,123.359 112.686,116.746 114.2,113.951C115.713,111.157 118.125,107.481 118.65,104.024C118.983,101.828 117.908,95.797 117.052,93.432C115.864,90.147 116.025,86.488 116.025,86.488Z" style="fill:rgb(191,191,191);"/>
    </g>
</svg>
