<?xml version="1.0" encoding="UTF-8" standalone="no"?><!DOCTYPE svg PUBLIC "-//W3C//DTD SVG 1.1//EN" "http://www.w3.org/Graphics/SVG/1.1/DTD/svg11.dtd"><svg width="100%" height="100%" viewBox="0 0 62 62" version="1.1" xmlns="http://www.w3.org/2000/svg" xmlns:xlink="http://www.w3.org/1999/xlink" xml:space="preserve" xmlns:serif="http://www.serif.com/" style="fill-rule:evenodd;clip-rule:evenodd;stroke-linejoin:round;stroke-miterlimit:2;"><g><path d="M6.789,24.17c-0.16,0 -0.24,-0.08 -0.24,-0.24l0,-12.316c0,-0.16 0.08,-0.24 0.24,-0.24l5.452,0c0.154,0 0.282,0.051 0.384,0.154l1.92,1.92c0.109,0.109 0.163,0.237 0.163,0.384l0,10.099c0,0.16 -0.08,0.24 -0.24,0.24l-2.717,0c-0.16,0 -0.24,-0.08 -0.24,-0.24l0,-10.003l-1.766,0l0,10.003c0,0.16 -0.08,0.24 -0.24,0.24l-2.717,0Z" style="fill-rule:nonzero;"/><path d="M7.4,24.713c-0.16,0 -0.24,-0.08 -0.24,-0.24l0,-12.316c0,-0.16 0.08,-0.24 0.24,-0.24l5.452,0c0.154,0 0.282,0.051 0.384,0.154l1.92,1.92c0.109,0.109 0.163,0.237 0.163,0.384l0,10.099c0,0.16 -0.08,0.24 -0.24,0.24l-2.717,0c-0.16,0 -0.24,-0.08 -0.24,-0.24l0,-10.003l-1.766,0l0,10.003c0,0.16 -0.08,0.24 -0.24,0.24l-2.717,0Z" style="fill:#949494;fill-rule:nonzero;"/><path d="M19.479,24.17c-0.147,0 -0.275,-0.054 -0.384,-0.163l-1.92,-1.92c-0.109,-0.102 -0.163,-0.23 -0.163,-0.384l0,-7.872c0,-0.147 0.054,-0.275 0.163,-0.384l1.92,-1.92c0.109,-0.102 0.237,-0.154 0.384,-0.154l3.773,0c0.154,0 0.282,0.051 0.384,0.154l1.92,1.92c0.109,0.109 0.163,0.237 0.163,0.384l0,7.872c0,0.154 -0.054,0.282 -0.163,0.384l-1.92,1.92c-0.102,0.109 -0.23,0.163 -0.384,0.163l-3.773,0Zm1.133,-2.563l1.507,0c0.269,0 0.403,-0.179 0.403,-0.538l0,-6.595c0,-0.365 -0.134,-0.547 -0.403,-0.547l-1.507,0c-0.262,0 -0.394,0.182 -0.394,0.547l0,6.595c0,0.358 0.131,0.538 0.394,0.538Z" style="fill-rule:nonzero;"/><path d="M20.09,24.713c-0.147,0 -0.275,-0.054 -0.384,-0.163l-1.92,-1.92c-0.109,-0.102 -0.163,-0.23 -0.163,-0.384l0,-7.872c0,-0.147 0.054,-0.275 0.163,-0.384l1.92,-1.92c0.109,-0.102 0.237,-0.154 0.384,-0.154l3.773,0c0.154,0 0.282,0.051 0.384,0.154l1.92,1.92c0.109,0.109 0.163,0.237 0.163,0.384l0,7.872c0,0.154 -0.054,0.282 -0.163,0.384l-1.92,1.92c-0.102,0.109 -0.23,0.163 -0.384,0.163l-3.773,0Zm1.133,-2.563l1.507,0c0.269,0 0.403,-0.179 0.403,-0.538l0,-6.595c0,-0.365 -0.134,-0.547 -0.403,-0.547l-1.507,0c-0.262,0 -0.394,0.182 -0.394,0.547l0,6.595c0,0.358 0.131,0.538 0.394,0.538Z" style="fill:#949494;fill-rule:nonzero;"/><path d="M6.789,39.369c-0.16,0 -0.24,-0.08 -0.24,-0.24l0,-12.316c0,-0.16 0.08,-0.24 0.24,-0.24l2.717,0c0.16,0 0.24,0.08 0.24,0.24l0,12.316c0,0.16 -0.08,0.24 -0.24,0.24l-2.717,0Z" style="fill-rule:nonzero;"/><path d="M7.4,39.912c-0.16,0 -0.24,-0.08 -0.24,-0.24l0,-12.316c0,-0.16 0.08,-0.24 0.24,-0.24l2.717,0c0.16,0 0.24,0.08 0.24,0.24l0,12.316c0,0.16 -0.08,0.24 -0.24,0.24l-2.717,0Z" style="fill:#949494;fill-rule:nonzero;"/><path d="M12.289,39.369c-0.16,0 -0.24,-0.08 -0.24,-0.24l0,-10.079c0,-0.16 0.08,-0.24 0.24,-0.24l4.368,0c0.147,0 0.275,0.054 0.384,0.163l1.181,1.181l0.355,0l1.181,-1.181c0.109,-0.109 0.237,-0.163 0.384,-0.163l2.083,0c0.147,0 0.275,0.054 0.384,0.163l1.92,1.92c0.109,0.102 0.163,0.23 0.163,0.384l0,7.852c0,0.16 -0.08,0.24 -0.24,0.24l-2.563,0c-0.16,0 -0.24,-0.08 -0.24,-0.24l0,-7.516c0,-0.269 -0.134,-0.403 -0.403,-0.403l-1.354,0l0,7.92c0,0.16 -0.08,0.24 -0.24,0.24l-2.563,0c-0.16,0 -0.24,-0.08 -0.24,-0.24l0,-7.516c0,-0.269 -0.134,-0.403 -0.403,-0.403l-1.354,0l0,7.92c0,0.16 -0.08,0.24 -0.24,0.24l-2.563,0Z" style="fill-rule:nonzero;"/><path d="M12.9,39.912c-0.16,0 -0.24,-0.08 -0.24,-0.24l0,-10.079c0,-0.16 0.08,-0.24 0.24,-0.24l4.368,0c0.147,0 0.275,0.054 0.384,0.163l1.181,1.181l0.355,0l1.181,-1.181c0.109,-0.109 0.237,-0.163 0.384,-0.163l2.083,0c0.147,0 0.275,0.054 0.384,0.163l1.92,1.92c0.109,0.102 0.163,0.23 0.163,0.384l0,7.852c0,0.16 -0.08,0.24 -0.24,0.24l-2.563,0c-0.16,0 -0.24,-0.08 -0.24,-0.24l0,-7.516c0,-0.269 -0.134,-0.403 -0.403,-0.403l-1.354,0l0,7.92c0,0.16 -0.08,0.24 -0.24,0.24l-2.563,0c-0.16,0 -0.24,-0.08 -0.24,-0.24l0,-7.516c0,-0.269 -0.134,-0.403 -0.403,-0.403l-1.354,0l0,7.92c0,0.16 -0.08,0.24 -0.24,0.24l-2.563,0Z" style="fill:#949494;fill-rule:nonzero;"/><path d="M29.328,39.369c-0.147,0 -0.275,-0.054 -0.384,-0.163l-1.92,-1.92c-0.109,-0.102 -0.163,-0.23 -0.163,-0.384l0,-5.625c0,-0.154 0.054,-0.282 0.163,-0.384l1.92,-1.92c0.109,-0.109 0.237,-0.163 0.384,-0.163l5.136,0c0.16,0 0.24,0.08 0.24,0.24l0,10.079c0,0.16 -0.08,0.24 -0.24,0.24l-1.997,0c-0.083,0 -0.146,-0.016 -0.187,-0.048c-0.042,-0.032 -0.088,-0.07 -0.139,-0.115l-0.48,-0.48l-0.48,0.48c-0.102,0.109 -0.23,0.163 -0.384,0.163l-1.469,0Zm1.123,-2.237l0.672,0c0.205,0 0.346,-0.042 0.422,-0.125c0.077,-0.083 0.115,-0.23 0.115,-0.442l0,-5.52l-1.21,0c-0.211,0 -0.355,0.042 -0.432,0.125c-0.077,0.083 -0.115,0.23 -0.115,0.442l0,4.953c0,0.211 0.038,0.358 0.115,0.442c0.077,0.083 0.221,0.125 0.432,0.125Z" style="fill-rule:nonzero;"/><path d="M29.939,39.912c-0.147,0 -0.275,-0.054 -0.384,-0.163l-1.92,-1.92c-0.109,-0.102 -0.163,-0.23 -0.163,-0.384l0,-5.625c0,-0.154 0.054,-0.282 0.163,-0.384l1.92,-1.92c0.109,-0.109 0.237,-0.163 0.384,-0.163l5.136,0c0.16,0 0.24,0.08 0.24,0.24l0,10.079c0,0.16 -0.08,0.24 -0.24,0.24l-1.997,0c-0.083,0 -0.146,-0.016 -0.187,-0.048c-0.042,-0.032 -0.088,-0.07 -0.139,-0.115l-0.48,-0.48l-0.48,0.48c-0.102,0.109 -0.23,0.163 -0.384,0.163l-1.469,0Zm1.123,-2.237l0.672,0c0.205,0 0.346,-0.042 0.422,-0.125c0.077,-0.083 0.115,-0.23 0.115,-0.442l0,-5.52l-1.21,0c-0.211,0 -0.355,0.042 -0.432,0.125c-0.077,0.083 -0.115,0.23 -0.115,0.442l0,4.953c0,0.211 0.038,0.358 0.115,0.442c0.077,0.083 0.221,0.125 0.432,0.125Z" style="fill:#949494;fill-rule:nonzero;"/><path d="M39.647,42.565c-0.16,0 -0.24,-0.08 -0.24,-0.24l0,-1.498c0,-0.128 0.048,-0.198 0.144,-0.211l1.402,-0.355l0.998,-0.528c0.096,-0.051 0.144,-0.15 0.144,-0.298l0,-1.574l-0.902,0.835c-0.109,0.109 -0.237,0.163 -0.384,0.163l-1.632,0.058c-0.147,0 -0.275,-0.051 -0.384,-0.154l-1.757,-1.766c-0.109,-0.102 -0.163,-0.23 -0.163,-0.384l0,-5.337c0,-0.154 0.054,-0.282 0.163,-0.384l1.92,-1.92c0.109,-0.109 0.237,-0.163 0.384,-0.163l5.136,0c0.16,0 0.24,0.08 0.24,0.24l0,11.539c0,0.173 -0.054,0.301 -0.163,0.384l-1.277,0.816l-1.613,0.672c-0.096,0.038 -0.168,0.066 -0.216,0.082c-0.048,0.016 -0.126,0.024 -0.235,0.024l-1.565,0Zm0.816,-5.721l0.672,0c0.205,0 0.346,-0.042 0.422,-0.125c0.077,-0.083 0.115,-0.23 0.115,-0.442l0,-5.232l-1.21,0c-0.211,0 -0.355,0.042 -0.432,0.125c-0.077,0.083 -0.115,0.23 -0.115,0.442l0,4.665c0,0.211 0.038,0.358 0.115,0.442c0.077,0.083 0.221,0.125 0.432,0.125Z" style="fill-rule:nonzero;"/><path d="M40.259,43.108c-0.16,0 -0.24,-0.08 -0.24,-0.24l0,-1.498c0,-0.128 0.048,-0.198 0.144,-0.211l1.402,-0.355l0.998,-0.528c0.096,-0.051 0.144,-0.15 0.144,-0.298l0,-1.574l-0.902,0.835c-0.109,0.109 -0.237,0.163 -0.384,0.163l-1.632,0.058c-0.147,0 -0.275,-0.051 -0.384,-0.154l-1.757,-1.766c-0.109,-0.102 -0.163,-0.23 -0.163,-0.384l0,-5.337c0,-0.154 0.054,-0.282 0.163,-0.384l1.92,-1.92c0.109,-0.109 0.237,-0.163 0.384,-0.163l5.136,0c0.16,0 0.24,0.08 0.24,0.24l0,11.539c0,0.173 -0.054,0.301 -0.163,0.384l-1.277,0.816l-1.613,0.672c-0.096,0.038 -0.168,0.066 -0.216,0.082c-0.048,0.016 -0.126,0.024 -0.235,0.024l-1.565,0Zm0.816,-5.721l0.672,0c0.205,0 0.346,-0.042 0.422,-0.125c0.077,-0.083 0.115,-0.23 0.115,-0.442l0,-5.232l-1.21,0c-0.211,0 -0.355,0.042 -0.432,0.125c-0.077,0.083 -0.115,0.23 -0.115,0.442l0,4.665c0,0.211 0.038,0.358 0.115,0.442c0.077,0.083 0.221,0.125 0.432,0.125Z" style="fill:#949494;fill-rule:nonzero;"/><path d="M51.253,39.369c-0.064,0 -0.133,-0.01 -0.206,-0.029c-0.074,-0.019 -0.142,-0.035 -0.206,-0.048l-1.709,-0.422l-1.958,-0.653c-0.192,-0.064 -0.288,-0.25 -0.288,-0.557l0,-6.384c0,-0.154 0.054,-0.282 0.163,-0.384l1.92,-1.92c0.109,-0.109 0.237,-0.163 0.384,-0.163l3.072,0c0.147,0 0.275,0.054 0.384,0.163l1.92,1.92c0.109,0.102 0.163,0.23 0.163,0.384l0,3.936l-5.155,0l-0.067,1.277l1.363,0.451l2.448,0.173c0.109,0.019 0.163,0.093 0.163,0.221l0,1.795c0,0.16 -0.08,0.24 -0.24,0.24l-2.15,0Zm-0.384,-5.664l0.182,0c0.314,0 0.565,-0.118 0.754,-0.355c0.189,-0.237 0.283,-0.557 0.283,-0.96l0,-0.192c0,-0.397 -0.094,-0.714 -0.283,-0.95c-0.189,-0.237 -0.44,-0.355 -0.754,-0.355l-0.192,0c-0.307,0 -0.552,0.118 -0.734,0.355c-0.182,0.237 -0.274,0.554 -0.274,0.95l0,0.192c0,0.403 0.091,0.723 0.274,0.96c0.182,0.237 0.43,0.355 0.744,0.355Z" style="fill-rule:nonzero;"/><path d="M51.864,39.912c-0.064,0 -0.133,-0.01 -0.206,-0.029c-0.074,-0.019 -0.142,-0.035 -0.206,-0.048l-1.709,-0.422l-1.958,-0.653c-0.192,-0.064 -0.288,-0.25 -0.288,-0.557l0,-6.384c0,-0.154 0.054,-0.282 0.163,-0.384l1.92,-1.92c0.109,-0.109 0.237,-0.163 0.384,-0.163l3.072,0c0.147,0 0.275,0.054 0.384,0.163l1.92,1.92c0.109,0.102 0.163,0.23 0.163,0.384l0,3.936l-5.155,0l-0.067,1.277l1.363,0.451l2.448,0.173c0.109,0.019 0.163,0.093 0.163,0.221l0,1.795c0,0.16 -0.08,0.24 -0.24,0.24l-2.15,0Zm-0.384,-5.664l0.182,0c0.314,0 0.565,-0.118 0.754,-0.355c0.189,-0.237 0.283,-0.557 0.283,-0.96l0,-0.192c0,-0.397 -0.094,-0.714 -0.283,-0.95c-0.189,-0.237 -0.44,-0.355 -0.754,-0.355l-0.192,0c-0.307,0 -0.552,0.118 -0.734,0.355c-0.182,0.237 -0.274,0.554 -0.274,0.95l0,0.192c0,0.403 0.091,0.723 0.274,0.96c0.182,0.237 0.43,0.355 0.744,0.355Z" style="fill:#949494;fill-rule:nonzero;"/></g></svg>