<?xml version="1.0" encoding="UTF-8" standalone="no"?>
<!DOCTYPE svg PUBLIC "-//W3C//DTD SVG 1.1//EN" "http://www.w3.org/Graphics/SVG/1.1/DTD/svg11.dtd">
<svg width="100%" height="100%" viewBox="0 0 512 512" version="1.1" xmlns="http://www.w3.org/2000/svg" xmlns:xlink="http://www.w3.org/1999/xlink" xml:space="preserve" xmlns:serif="http://www.serif.com/" style="fill-rule:evenodd;clip-rule:evenodd;stroke-linejoin:round;stroke-miterlimit:2;">
    <g transform="matrix(1.087417,0,0,1.087417,-22.385249,-109.57186)">
        <path d="M456.052,182.325C463.623,185.794 469.324,192.367 471.686,200.353C474.049,208.339 472.842,216.956 468.377,223.986C428.925,286.1 333.497,436.348 284.87,512.909C278.476,522.975 267.362,529.055 255.437,529.01C243.511,528.964 232.444,522.8 226.127,512.685C173.771,428.848 66.43,256.968 34.931,206.529C32.665,202.901 32.044,198.482 33.222,194.37C34.399,190.257 37.265,186.837 41.108,184.958C58.934,176.243 86.239,162.893 86.239,162.893C86.239,162.893 109.613,163.056 124.557,163.161C132.099,163.213 139.044,167.272 142.793,173.817C167.02,216.116 255.674,370.9 255.674,370.9C255.674,370.9 346.838,207.804 367.579,170.696C370.153,166.09 375.001,163.218 380.278,163.174C392.529,163.071 413.641,162.893 413.641,162.893C413.641,162.893 436.132,173.198 456.052,182.325Z" style="fill:rgb(101,101,101);"/>
    </g>
</svg>
