<?xml version="1.0" encoding="UTF-8" standalone="no"?>
<!DOCTYPE svg PUBLIC "-//W3C//DTD SVG 1.1//EN" "http://www.w3.org/Graphics/SVG/1.1/DTD/svg11.dtd">
<svg width="100%" height="100%" viewBox="0 0 65 65" version="1.1" xmlns="http://www.w3.org/2000/svg" xmlns:xlink="http://www.w3.org/1999/xlink" xml:space="preserve" xmlns:serif="http://www.serif.com/" style="fill-rule:evenodd;clip-rule:evenodd;stroke-linejoin:round;stroke-miterlimit:2;">
    <g id="Artboard1" transform="matrix(0.296993,0,0,0.577817,-6.459592,-56.525366)">
        <rect x="21.75" y="97.826" width="216.673" height="112.486" style="fill:none;"/>
        <g transform="matrix(2.225463,0,0,1.143868,-27.736616,-12.124021)">
            <path d="M69.873,114.26C67.693,116.367 64.521,121.964 61.819,128.01C56.861,126.306 52.537,123.501 48.855,119.58C54.519,114.61 61.838,111.479 69.873,111.127L69.873,114.26ZM72.912,111.127C80.89,111.477 88.163,114.566 93.811,119.476C90.153,123.394 85.865,126.223 80.939,127.95C78.243,121.927 75.084,116.36 72.912,114.26L72.912,111.127ZM69.873,179.453C61.541,179.088 53.979,175.735 48.233,170.441C51.925,166.341 56.279,163.383 61.301,161.579C64.084,168.059 67.506,174.217 69.873,176.384L69.873,179.453ZM72.912,176.384C75.263,174.232 78.655,168.142 81.427,161.711C86.382,163.554 90.685,166.527 94.33,170.644C88.612,175.821 81.137,179.092 72.912,179.453L72.912,176.384ZM69.829,191.964C44.777,191.139 24.693,170.541 24.693,145.29C24.693,120.039 44.777,99.441 69.829,98.616L69.829,108.191C50.06,109.011 34.261,125.32 34.261,145.29C34.261,165.26 50.06,181.569 69.829,182.389L69.829,191.964ZM72.956,98.616C98.008,99.441 118.092,120.039 118.092,145.29C118.092,170.541 98.008,191.139 72.956,191.964L72.956,182.389C92.725,181.569 108.524,165.26 108.524,145.29C108.524,125.32 92.725,109.011 72.956,108.191L72.956,98.616ZM37.238,143.599C37.652,135.116 41.163,127.441 46.663,121.681C50.652,125.872 55.308,128.904 60.624,130.79C58.659,135.546 57.113,140.294 56.675,143.599L37.238,143.599ZM96.013,121.568C101.576,127.34 105.131,135.06 105.547,143.599L86.11,143.599C85.67,140.279 84.112,135.504 82.135,130.727C87.423,128.817 92.047,125.76 96.013,121.568ZM105.547,146.981C105.143,155.27 101.781,162.788 96.496,168.501C92.538,164.127 87.897,160.939 82.581,158.924C84.351,154.463 85.71,150.086 86.112,146.981L105.547,146.981ZM46.086,168.28C40.918,162.595 37.637,155.164 37.238,146.981L56.673,146.981C57.071,150.054 58.407,154.374 60.15,158.788C54.774,160.764 50.089,163.932 46.086,168.28ZM71.393,134.25C77.486,134.25 82.432,139.197 82.432,145.29C82.432,151.383 77.486,156.33 71.393,156.33C65.299,156.33 60.353,151.383 60.353,145.29C60.353,139.197 65.299,134.25 71.393,134.25ZM76.223,145.29C76.223,143.277 72.566,137.446 71.393,137.446C70.219,137.446 66.563,143.277 66.563,145.29C66.563,147.303 70.136,153.134 71.393,153.134C72.649,153.134 76.223,147.303 76.223,145.29Z" style="fill:rgb(217,230,189);"/>
        </g>
    </g>
</svg>
