<?xml version="1.0" encoding="UTF-8" standalone="no"?>
<!DOCTYPE svg PUBLIC "-//W3C//DTD SVG 1.1//EN" "http://www.w3.org/Graphics/SVG/1.1/DTD/svg11.dtd">
<svg width="100%" height="100%" viewBox="0 0 21 22" version="1.1" xmlns="http://www.w3.org/2000/svg" xmlns:xlink="http://www.w3.org/1999/xlink" xml:space="preserve" xmlns:serif="http://www.serif.com/" style="fill-rule:evenodd;clip-rule:evenodd;stroke-linejoin:round;stroke-miterlimit:2;">
    <g id="Artboard1" transform="matrix(0.875325,0,0,0.911051,-11.985437,-6.203824)">
        <rect x="13.693" y="6.81" width="23.935" height="23.064" style="fill:none;"/>
        <g transform="matrix(1.142433,0,0,1.097633,-3.502839,-1.413991)">
            <g transform="matrix(1,0,0,1,11.4215,4.8375)">
                <path d="M3.867,13.162C3.867,7.526 8.442,2.951 14.078,2.951C19.714,2.951 24.289,7.526 24.289,13.162C24.289,18.798 19.714,23.373 14.078,23.373C8.442,23.373 3.867,18.798 3.867,13.162Z" style="fill:rgb(217,230,189);"/>
            </g>
            <g transform="matrix(1,0,0,1,11.4215,4.8375)">
                <rect x="3.867" y="12.946" width="1.685" height="0.419" style="fill:rgb(0,46,33);"/>
            </g>
            <g transform="matrix(1,0,0,1,11.4215,4.8375)">
                <rect x="13.889" y="2.951" width="0.419" height="1.685" style="fill:rgb(0,46,33);"/>
            </g>
            <g transform="matrix(1,0,0,1,11.4215,4.8375)">
                <path d="M7.023,5.8L8.214,6.991L7.918,7.287L6.727,6.096L7.023,5.8Z" style="fill:rgb(217,230,189);"/>
            </g>
            <g transform="matrix(1,0,0,1,11.4215,4.8375)">
                <path d="M20.228,19.066L21.419,20.257L21.123,20.553L19.932,19.362L20.228,19.066Z" style="fill:rgb(217,230,189);"/>
            </g>
            <g transform="matrix(1,0,0,1,11.4215,4.8375)">
                <path d="M8.193,19.326L7.002,20.517L6.706,20.221L7.897,19.03L8.193,19.326Z" style="fill:rgb(217,230,189);"/>
            </g>
            <g transform="matrix(1,0,0,1,11.4215,4.8375)">
                <path d="M21.448,6.101L20.257,7.292L19.961,6.996L21.152,5.805L21.448,6.101Z" style="fill:rgb(217,230,189);"/>
            </g>
            <g transform="matrix(1,0,0,1,11.4215,4.8375)">
                <rect x="13.889" y="21.689" width="0.419" height="1.685" style="fill:rgb(0,46,33);"/>
            </g>
            <g transform="matrix(1,0,0,1,11.4215,4.8375)">
                <rect x="22.658" y="12.953" width="1.632" height="0.419" style="fill:rgb(0,46,33);"/>
            </g>
            <g transform="matrix(1,0,0,1,11.4215,4.8375)">
                <path d="M5.499,13.156C5.499,8.41 9.352,4.556 14.099,4.556C18.845,4.556 22.699,8.409 22.699,13.156C22.699,17.902 18.846,21.756 14.099,21.756C9.353,21.756 5.499,17.903 5.499,13.156ZM13.89,5.17C11.833,5.223 9.969,6.055 8.581,7.382L13.89,12.691L13.89,5.17ZM14.308,21.142C16.345,21.09 18.194,20.273 19.577,18.969L14.308,13.7L14.308,21.143L14.308,21.142ZM19.594,7.359C18.209,6.045 16.354,5.223 14.308,5.17L14.308,12.645L19.594,7.359ZM8.598,18.946C9.984,20.264 11.842,21.089 13.891,21.142L13.891,13.653L8.598,18.946ZM14.597,13.397L19.874,18.674C21.194,17.293 22.024,15.441 22.085,13.397L14.597,13.397ZM22.087,12.979C22.042,10.918 21.215,9.047 19.89,7.654L14.565,12.979L22.087,12.979ZM13.589,12.979L8.288,7.678C6.977,9.069 6.158,10.929 6.114,12.979L13.589,12.979ZM6.115,13.397C6.175,15.43 6.996,17.273 8.303,18.651L13.557,13.397L6.115,13.397Z" style="fill:rgb(0,46,33);"/>
            </g>
            <g transform="matrix(1,0,0,1,11.4215,4.8375)">
                <path d="M11.167,13.132C11.167,9.262 13.8,6.12 14.099,6.12C14.398,6.12 17.031,9.262 17.031,13.132C17.031,17.002 14.471,20.144 14.099,20.144C13.727,20.144 11.167,17.002 11.167,13.132Z" style="fill:rgb(0,46,33);"/>
            </g>
            <g transform="matrix(1,0,0,1,11.4215,4.8375)">
                <path d="M11.997,13.163C11.997,12.064 12.889,11.172 13.988,11.172C15.087,11.172 15.979,12.064 15.979,13.163C15.979,14.262 15.087,15.154 13.988,15.154C12.889,15.154 11.997,14.262 11.997,13.163Z" style="fill:rgb(217,230,189);"/>
            </g>
            <g transform="matrix(1,0,0,1,11.4215,4.8375)">
                <path d="M12.974,13.132C12.974,12.572 13.428,12.118 13.988,12.118C14.548,12.118 15.002,12.572 15.002,13.132C15.002,13.692 14.548,14.146 13.988,14.146C13.428,14.146 12.974,13.692 12.974,13.132Z" style="fill:rgb(0,46,33);"/>
            </g>
        </g>
    </g>
</svg>
