<?xml version="1.0" encoding="UTF-8" standalone="no"?>
<!DOCTYPE svg PUBLIC "-//W3C//DTD SVG 1.1//EN" "http://www.w3.org/Graphics/SVG/1.1/DTD/svg11.dtd">
<svg width="100%" height="100%" viewBox="0 0 426 344" version="1.1" xmlns="http://www.w3.org/2000/svg" xmlns:xlink="http://www.w3.org/1999/xlink" xml:space="preserve" xmlns:serif="http://www.serif.com/" style="fill-rule:evenodd;clip-rule:evenodd;stroke-linejoin:round;stroke-miterlimit:2;">
    <g id="Artboard1" transform="matrix(1.170213,0,0,0.898576,-320.512423,-16.368656)">
        <rect x="273.892" y="18.216" width="363.986" height="381.784" style="fill:none;"/>
        <g transform="matrix(0.243907,0,-0,0.317639,349.424064,97.879545)">
            <path d="M450,5.357C557.427,5.357 644.643,92.573 644.643,200C644.643,307.427 557.427,394.643 450,394.643C342.573,394.643 255.357,307.427 255.357,200C255.357,92.573 342.573,5.357 450,5.357ZM450,41.9C362.742,41.9 291.9,112.742 291.9,200C291.9,287.258 362.742,358.1 450,358.1C537.258,358.1 608.1,287.258 608.1,200C608.1,112.742 537.258,41.9 450,41.9Z" style="fill:rgb(189,210,212);"/>
        </g>
        <g transform="matrix(0.374917,0,-0,0.488253,290.469581,63.756782)">
            <path d="M450,5.357C557.427,5.357 644.643,92.573 644.643,200C644.643,307.427 557.427,394.643 450,394.643C342.573,394.643 255.357,307.427 255.357,200C255.357,92.573 342.573,5.357 450,5.357ZM450,41.9C362.742,41.9 291.9,112.742 291.9,200C291.9,287.258 362.742,358.1 450,358.1C537.258,358.1 608.1,287.258 608.1,200C608.1,112.742 537.258,41.9 450,41.9Z" style="fill:rgb(189,210,212);"/>
        </g>
        <g transform="matrix(0.312526,-0.407001,0.257309,0.335093,267.08372,249.350988)">
            <rect x="271.984" y="176.012" width="178.016" height="23.988" style="fill:rgb(189,210,212);"/>
        </g>
        <g transform="matrix(0.487006,0,-0,0.372234,282.733808,110.351594)">
            <rect x="271.984" y="176.012" width="178.016" height="23.988" style="fill:rgb(189,210,212);"/>
        </g>
        <g transform="matrix(0,-0.639089,0.285829,0,405.444504,392.035079)">
            <rect x="271.984" y="176.012" width="178.016" height="23.988" style="fill:rgb(189,210,212);"/>
        </g>
        <g transform="matrix(-0.329205,-0.428722,0.260887,-0.339752,555.23254,377.906419)">
            <rect x="271.984" y="176.012" width="178.016" height="23.988" style="fill:rgb(189,210,212);"/>
        </g>
        <g transform="matrix(1.4296,0,0,1.861763,-263.937508,226.227637)">
            <g transform="matrix(1,0,0,1,8.833714,0)">
                <path d="M396.909,66.361C393.893,66.361 391.244,66.07 388.961,65.488C386.677,64.906 384.557,64.183 382.6,63.319L382.6,53.956L383.499,53.956C385.474,55.631 387.652,56.919 390.032,57.818C392.412,58.717 394.722,59.167 396.961,59.167C397.526,59.167 398.271,59.105 399.196,58.982C400.122,58.858 400.867,58.664 401.431,58.4C402.119,58.1 402.701,57.681 403.177,57.143C403.653,56.606 403.891,55.896 403.891,55.014C403.891,54.027 403.503,53.225 402.727,52.607C401.951,51.99 401.026,51.541 399.95,51.259C398.61,50.906 397.177,50.571 395.652,50.254C394.127,49.936 392.703,49.548 391.381,49.09C388.33,48.014 386.144,46.568 384.822,44.752C383.499,42.936 382.838,40.662 382.838,37.929C382.838,34.243 384.398,31.259 387.519,28.976C390.64,26.692 394.537,25.551 399.21,25.551C401.555,25.551 403.887,25.789 406.205,26.265C408.524,26.741 410.6,27.384 412.434,28.195L412.434,37.188L411.561,37.188C410.098,35.936 408.312,34.878 406.205,34.014C404.098,33.15 401.934,32.718 399.712,32.718C398.848,32.718 398.072,32.78 397.385,32.903C396.697,33.027 395.974,33.265 395.216,33.617C394.599,33.9 394.065,34.318 393.616,34.874C393.166,35.429 392.941,36.051 392.941,36.738C392.941,37.743 393.298,38.541 394.012,39.132C394.727,39.723 396.106,40.256 398.152,40.732C399.474,41.032 400.748,41.323 401.973,41.605C403.199,41.887 404.508,42.275 405.901,42.769C408.634,43.756 410.666,45.083 411.997,46.749C413.329,48.415 413.994,50.615 413.994,53.348C413.994,57.262 412.456,60.41 409.379,62.79C406.302,65.171 402.145,66.361 396.909,66.361Z" style="fill:rgb(189,210,212);fill-rule:nonzero;"/>
            </g>
            <g transform="matrix(1,0,0,1,14.196302,0)">
                <path d="M426.61,65.647L426.61,33.776L414.973,33.776L414.973,26.265L448.139,26.265L448.139,33.776L436.502,33.776L436.502,65.647L426.61,65.647Z" style="fill:rgb(189,210,212);fill-rule:nonzero;"/>
            </g>
            <g transform="matrix(1,0,0,1,18.338439,0)">
                <path d="M447.981,65.647L461.284,26.265L472.075,26.265L485.379,65.647L475.196,65.647L472.737,57.606L460.359,57.606L457.899,65.647L447.981,65.647ZM470.568,50.465L466.548,37.479L462.527,50.465L470.568,50.465Z" style="fill:rgb(189,210,212);fill-rule:nonzero;"/>
            </g>
            <g transform="matrix(1,0,0,1,18.338439,0)">
                <path d="M496.858,65.647L496.858,33.776L485.22,33.776L485.22,26.265L518.387,26.265L518.387,33.776L506.749,33.776L506.749,65.647L496.858,65.647Z" style="fill:rgb(189,210,212);fill-rule:nonzero;"/>
            </g>
            <g transform="matrix(1,0,0,1,10.793436,0)">
                <path d="M573.506,45.995C573.506,49.663 572.703,52.947 571.099,55.847C569.494,58.748 567.467,60.974 565.016,62.526C562.97,63.848 560.744,64.699 558.337,65.078C555.931,65.457 553.369,65.647 550.654,65.647L538.329,65.647L538.329,26.265L550.548,26.265C553.317,26.265 555.909,26.441 558.324,26.794C560.74,27.146 563.006,28.002 565.121,29.359C567.713,31.017 569.759,33.252 571.257,36.064C572.756,38.876 573.506,42.187 573.506,45.995ZM563.349,45.916C563.349,43.324 562.904,41.107 562.014,39.264C561.123,37.422 559.752,35.98 557.901,34.94C556.561,34.199 555.155,33.794 553.682,33.723C552.21,33.653 550.451,33.617 548.406,33.617L548.221,33.617L548.221,58.267L548.406,58.267C550.628,58.267 552.501,58.228 554.026,58.148C555.551,58.069 557.002,57.597 558.377,56.733C559.999,55.711 561.233,54.3 562.08,52.502C562.926,50.703 563.349,48.508 563.349,45.916Z" style="fill:rgb(189,210,212);fill-rule:nonzero;"/>
            </g>
            <g transform="matrix(1,0,0,1,10.793436,0)">
                <path d="M605.641,65.647L579.351,65.647L579.351,26.265L589.243,26.265L589.243,58.135L605.641,58.135L605.641,65.647Z" style="fill:rgb(189,210,212);fill-rule:nonzero;"/>
            </g>
        </g>
        <g transform="matrix(0.722827,0,0,0.849882,145.331513,42.857154)">
            <rect x="481.633" y="342.927" width="16.639" height="16.639" style="fill:rgb(189,210,212);"/>
        </g>
        <g transform="matrix(0.874994,1.139502,-0.874994,1.139502,337.746847,-807.067006)">
            <rect x="481.633" y="342.927" width="16.639" height="16.639" style="fill:rgb(20,217,201);"/>
        </g>
    </g>
</svg>
