<?xml version="1.0" encoding="UTF-8" standalone="no"?>
<!DOCTYPE svg PUBLIC "-//W3C//DTD SVG 1.1//EN" "http://www.w3.org/Graphics/SVG/1.1/DTD/svg11.dtd">
<svg width="100%" height="100%" viewBox="0 0 187 109" version="1.1" xmlns="http://www.w3.org/2000/svg" xmlns:xlink="http://www.w3.org/1999/xlink" xml:space="preserve" xmlns:serif="http://www.serif.com/" style="fill-rule:evenodd;clip-rule:evenodd;stroke-linejoin:round;stroke-miterlimit:2;">
    <g id="Artboard1" transform="matrix(0.862844,0,0,0.960699,-18.766864,-93.981052)">
        <rect x="21.75" y="97.826" width="216.673" height="112.486" style="fill:none;"/>
        <clipPath id="_clip1">
            <rect x="21.75" y="97.826" width="216.673" height="112.486"/>
        </clipPath>
        <g clip-path="url(#_clip1)">
            <g transform="matrix(1.158958,0,0,1.040909,-29.344504,-7.744142)">
                <rect x="0" y="0" width="256" height="256" style="fill:rgb(25,29,33);"/>
            </g>
            <g transform="matrix(0.766009,0,0,0.687985,17.150836,36.232163)">
                <path d="M69.873,114.26C67.693,116.367 64.521,121.964 61.819,128.01C56.861,126.306 52.537,123.501 48.855,119.58C54.519,114.61 61.838,111.479 69.873,111.127L69.873,114.26ZM72.912,111.127C80.89,111.477 88.163,114.566 93.811,119.476C90.153,123.394 85.865,126.223 80.939,127.95C78.243,121.927 75.084,116.36 72.912,114.26L72.912,111.127ZM69.873,179.453C61.541,179.088 53.979,175.735 48.233,170.441C51.925,166.341 56.279,163.383 61.301,161.579C64.084,168.059 67.506,174.217 69.873,176.384L69.873,179.453ZM72.912,176.384C75.263,174.232 78.655,168.142 81.427,161.711C86.382,163.554 90.685,166.527 94.33,170.644C88.612,175.821 81.137,179.092 72.912,179.453L72.912,176.384ZM69.829,191.964C44.777,191.139 24.693,170.541 24.693,145.29C24.693,120.039 44.777,99.441 69.829,98.616L69.829,108.191C50.06,109.011 34.261,125.32 34.261,145.29C34.261,165.26 50.06,181.569 69.829,182.389L69.829,191.964ZM72.956,98.616C98.008,99.441 118.092,120.039 118.092,145.29C118.092,170.541 98.008,191.139 72.956,191.964L72.956,182.389C92.725,181.569 108.524,165.26 108.524,145.29C108.524,125.32 92.725,109.011 72.956,108.191L72.956,98.616ZM37.238,143.599C37.652,135.116 41.163,127.441 46.663,121.681C50.652,125.872 55.308,128.904 60.624,130.79C58.659,135.546 57.113,140.294 56.675,143.599L37.238,143.599ZM96.013,121.568C101.576,127.34 105.131,135.06 105.547,143.599L86.11,143.599C85.67,140.279 84.112,135.504 82.135,130.727C87.423,128.817 92.047,125.76 96.013,121.568ZM105.547,146.981C105.143,155.27 101.781,162.788 96.496,168.501C92.538,164.127 87.897,160.939 82.581,158.924C84.351,154.463 85.71,150.086 86.112,146.981L105.547,146.981ZM46.086,168.28C40.918,162.595 37.637,155.164 37.238,146.981L56.673,146.981C57.071,150.054 58.407,154.374 60.15,158.788C54.774,160.764 50.089,163.932 46.086,168.28ZM71.393,134.25C77.486,134.25 82.432,139.197 82.432,145.29C82.432,151.383 77.486,156.33 71.393,156.33C65.299,156.33 60.353,151.383 60.353,145.29C60.353,139.197 65.299,134.25 71.393,134.25ZM76.223,145.29C76.223,143.277 72.566,137.446 71.393,137.446C70.219,137.446 66.563,143.277 66.563,145.29C66.563,147.303 70.136,153.134 71.393,153.134C72.649,153.134 76.223,147.303 76.223,145.29Z" style="fill:rgb(217,230,189);"/>
            </g>
            <g transform="matrix(1.158958,0,0,1.040909,119.002068,139.625478)">
                <g transform="matrix(1,0,0,1,-106.25,-75)">
                    <g id="Artboard11" serif:id="Artboard1" transform="matrix(4.166667,0,0,4.166667,0,0)">
                        <rect x="0" y="0" width="50.293" height="35.14" style="fill:none;"/>
                    </g>
                    <g transform="matrix(4.166667,0,0,4.166667,0,0)">
                        <path d="M26.034,25.416C25.914,25.416 25.853,25.371 25.853,25.28L25.853,18.309C25.853,18.218 25.913,18.173 26.034,18.173L28.077,18.173C28.197,18.173 28.258,18.218 28.258,18.309L28.258,23.965L30.078,23.965C30.198,23.965 30.259,24.01 30.259,24.101L30.259,25.28C30.259,25.371 30.199,25.416 30.078,25.416L26.034,25.416Z" style="fill:rgb(217,230,189);fill-rule:nonzero;"/>
                        <path d="M32.114,25.416C32.003,25.416 31.907,25.385 31.825,25.324L30.381,24.237C30.299,24.179 30.258,24.107 30.258,24.02L30.258,19.565C30.258,19.482 30.299,19.409 30.381,19.348L31.825,18.261C31.907,18.203 32.003,18.174 32.114,18.174L34.952,18.174C35.068,18.174 35.164,18.203 35.241,18.261L36.685,19.348C36.767,19.41 36.808,19.482 36.808,19.565L36.808,24.02C36.808,24.107 36.767,24.179 36.685,24.237L35.241,25.324C35.164,25.386 35.068,25.416 34.952,25.416L32.114,25.416ZM32.966,23.965L34.1,23.965C34.302,23.965 34.403,23.864 34.403,23.661L34.403,19.928C34.403,19.722 34.302,19.618 34.1,19.618L32.966,19.618C32.769,19.618 32.67,19.721 32.67,19.928L32.67,23.661C32.67,23.864 32.769,23.965 32.966,23.965Z" style="fill:rgb(217,230,189);fill-rule:nonzero;"/>
                        <path d="M39.685,25.416C39.574,25.416 39.478,25.392 39.396,25.345L38.219,24.535L37.028,23.367C36.975,23.316 36.941,23.285 36.927,23.272C36.913,23.259 36.905,23.228 36.905,23.177L36.905,20.406C36.905,20.355 36.913,20.323 36.93,20.308C36.947,20.294 36.979,20.263 37.027,20.216L38.132,19.14L39.396,18.244C39.449,18.211 39.491,18.191 39.522,18.184C39.553,18.177 39.607,18.173 39.684,18.173L41.468,18.173C41.588,18.173 41.649,18.218 41.649,18.309L41.649,19.178C41.649,19.207 41.645,19.237 41.638,19.268C41.631,19.299 41.606,19.325 41.562,19.347L40.205,20.048L39.317,20.906L39.317,22.683L40.22,23.541L41.563,24.236C41.602,24.254 41.626,24.276 41.635,24.301C41.645,24.326 41.649,24.354 41.649,24.382L41.649,25.278C41.649,25.369 41.589,25.414 41.468,25.414L39.684,25.414L39.685,25.416Z" style="fill:rgb(217,230,189);fill-rule:nonzero;"/>
                        <path d="M42.109,25.416C41.989,25.416 41.928,25.371 41.928,25.28L41.928,18.309C41.928,18.218 41.988,18.173 42.109,18.173L44.152,18.173C44.272,18.173 44.333,18.218 44.333,18.309L44.333,21.189L45.228,21.189L45.705,19.836L46.138,18.244C46.148,18.222 46.17,18.205 46.207,18.192C46.243,18.179 46.297,18.173 46.369,18.173L48.449,18.173C48.569,18.173 48.63,18.218 48.63,18.309L48.63,18.988C48.63,19.028 48.623,19.067 48.608,19.105C48.594,19.143 48.582,19.177 48.572,19.206L47.691,20.798L47.077,21.667L47.705,22.525L48.766,24.34C48.785,24.365 48.8,24.393 48.809,24.421C48.819,24.45 48.823,24.492 48.823,24.546L48.823,25.279C48.823,25.37 48.763,25.415 48.642,25.415L46.49,25.415C46.456,25.415 46.414,25.41 46.364,25.401C46.313,25.392 46.283,25.369 46.274,25.333L45.74,23.611L45.343,22.628L44.332,22.628L44.332,25.279C44.332,25.37 44.272,25.415 44.151,25.415L42.108,25.415L42.109,25.416Z" style="fill:rgb(217,230,189);fill-rule:nonzero;"/>
                        <path d="M7.533,33.763C7.413,33.763 7.352,33.718 7.352,33.627L7.352,27.966L6.088,27.966C5.968,27.966 5.907,27.921 5.907,27.83L5.907,26.656C5.907,26.565 5.967,26.52 6.088,26.52L11.02,26.52C11.14,26.52 11.201,26.565 11.201,26.656L11.201,27.83C11.201,27.921 11.141,27.966 11.02,27.966L9.756,27.966L9.756,33.627C9.756,33.718 9.696,33.763 9.575,33.763L7.532,33.763L7.533,33.763Z" style="fill:rgb(217,230,189);fill-rule:nonzero;"/>
                        <path d="M11.731,33.763C11.611,33.763 11.55,33.718 11.55,33.627L11.55,26.656C11.55,26.565 11.61,26.52 11.731,26.52L15.645,26.52C15.761,26.52 15.857,26.544 15.934,26.591L17.595,27.83C17.648,27.866 17.68,27.897 17.692,27.922C17.704,27.947 17.71,27.989 17.71,28.047L17.71,29.536C17.71,29.583 17.686,29.625 17.638,29.661L16.844,30.242L16.172,30.677L16.966,31.47L17.782,32.785C17.801,32.818 17.817,32.849 17.829,32.88C17.841,32.911 17.847,32.948 17.847,32.991L17.847,33.627C17.847,33.718 17.787,33.763 17.666,33.763L15.76,33.763C15.654,33.763 15.582,33.727 15.543,33.654L14.38,31.111L13.838,31.111L13.838,33.627C13.838,33.718 13.778,33.763 13.657,33.763L11.729,33.763L11.731,33.763ZM14.634,29.78C15.034,29.78 15.306,29.718 15.45,29.593C15.594,29.468 15.667,29.234 15.667,28.889C15.667,28.541 15.595,28.305 15.45,28.18C15.306,28.055 15.034,27.993 14.634,27.993C14.239,27.993 13.967,28.055 13.818,28.18C13.669,28.305 13.594,28.541 13.594,28.889C13.594,29.233 13.669,29.468 13.818,29.593C13.967,29.718 14.239,29.78 14.634,29.78Z" style="fill:rgb(217,230,189);fill-rule:nonzero;"/>
                        <path d="M18.568,33.763C18.448,33.763 18.387,33.718 18.387,33.627L18.387,28.59C18.387,28.543 18.411,28.489 18.459,28.427L20.17,26.601C20.223,26.547 20.3,26.52 20.401,26.52L22.791,26.52C22.897,26.52 22.974,26.547 23.022,26.601L24.741,28.427C24.789,28.478 24.813,28.532 24.813,28.59L24.813,33.627C24.813,33.718 24.753,33.763 24.632,33.763L22.589,33.763C22.469,33.763 22.408,33.718 22.408,33.627L22.408,31.318L20.798,31.318L20.798,33.627C20.798,33.718 20.738,33.763 20.617,33.763L18.566,33.763L18.568,33.763ZM21.601,30.15C22.044,30.15 22.344,30.077 22.5,29.93C22.656,29.783 22.735,29.503 22.735,29.091C22.735,28.678 22.657,28.398 22.5,28.252C22.344,28.105 22.044,28.032 21.601,28.032C21.163,28.032 20.866,28.105 20.709,28.252C20.553,28.399 20.474,28.679 20.474,29.091C20.474,29.504 20.552,29.784 20.709,29.93C20.865,30.077 21.163,30.15 21.601,30.15Z" style="fill:rgb(217,230,189);fill-rule:nonzero;"/>
                        <path d="M27.97,33.763C27.859,33.763 27.763,33.739 27.681,33.692L26.504,32.882L25.313,31.714C25.26,31.663 25.226,31.632 25.212,31.619C25.198,31.606 25.19,31.575 25.19,31.524L25.19,28.753C25.19,28.702 25.198,28.67 25.215,28.655C25.232,28.641 25.264,28.61 25.312,28.563L26.417,27.487L27.681,26.591C27.734,26.558 27.776,26.538 27.807,26.531C27.838,26.524 27.892,26.52 27.969,26.52L29.753,26.52C29.873,26.52 29.934,26.565 29.934,26.656L29.934,27.525C29.934,27.554 29.93,27.584 29.923,27.615C29.916,27.646 29.891,27.672 29.847,27.694L28.49,28.395L27.602,29.253L27.602,31.03L28.505,31.888L29.848,32.583C29.887,32.601 29.911,32.623 29.92,32.648C29.93,32.673 29.934,32.701 29.934,32.729L29.934,33.625C29.934,33.716 29.874,33.761 29.753,33.761L27.969,33.761L27.97,33.763Z" style="fill:rgb(217,230,189);fill-rule:nonzero;"/>
                        <path d="M30.439,33.763C30.319,33.763 30.258,33.718 30.258,33.627L30.258,26.656C30.258,26.565 30.318,26.52 30.439,26.52L32.482,26.52C32.602,26.52 32.663,26.565 32.663,26.656L32.663,29.536L33.558,29.536L34.035,28.183L34.468,26.591C34.478,26.569 34.5,26.552 34.537,26.539C34.573,26.526 34.627,26.52 34.699,26.52L36.779,26.52C36.899,26.52 36.96,26.565 36.96,26.656L36.96,27.335C36.96,27.375 36.953,27.414 36.938,27.452C36.924,27.49 36.912,27.524 36.902,27.553L36.021,29.145L35.407,30.014L36.035,30.872L37.096,32.687C37.115,32.712 37.13,32.74 37.139,32.768C37.149,32.797 37.153,32.839 37.153,32.893L37.153,33.626C37.153,33.717 37.093,33.762 36.972,33.762L34.82,33.762C34.786,33.762 34.744,33.757 34.694,33.748C34.643,33.739 34.613,33.716 34.604,33.68L34.07,31.958L33.673,30.975L32.662,30.975L32.662,33.626C32.662,33.717 32.602,33.762 32.481,33.762L30.438,33.762L30.439,33.763Z" style="fill:rgb(217,230,189);fill-rule:nonzero;"/>
                        <path d="M37.585,33.763C37.465,33.763 37.404,33.718 37.404,33.627L37.404,26.656C37.404,26.565 37.464,26.52 37.585,26.52L42.618,26.52C42.738,26.52 42.799,26.565 42.799,26.656L42.799,27.83C42.799,27.921 42.739,27.966 42.618,27.966L39.809,27.966L39.809,29.509L42.372,29.509C42.492,29.509 42.553,29.554 42.553,29.645L42.553,30.639C42.553,30.73 42.493,30.775 42.372,30.775L39.809,30.775L39.809,32.313L42.618,32.313C42.738,32.313 42.799,32.358 42.799,32.449L42.799,33.628C42.799,33.719 42.739,33.764 42.618,33.764L37.585,33.764L37.585,33.763Z" style="fill:rgb(217,230,189);fill-rule:nonzero;"/>
                        <path d="M43.359,33.763C43.239,33.763 43.178,33.718 43.178,33.627L43.178,26.656C43.178,26.565 43.238,26.52 43.359,26.52L47.273,26.52C47.389,26.52 47.485,26.544 47.562,26.591L49.223,27.83C49.276,27.866 49.308,27.897 49.32,27.922C49.332,27.947 49.338,27.989 49.338,28.047L49.338,29.536C49.338,29.583 49.314,29.625 49.266,29.661L48.472,30.242L47.8,30.677L48.594,31.47L49.41,32.785C49.429,32.818 49.445,32.849 49.457,32.88C49.469,32.911 49.475,32.948 49.475,32.991L49.475,33.627C49.475,33.718 49.415,33.763 49.294,33.763L47.388,33.763C47.282,33.763 47.21,33.727 47.171,33.654L46.008,31.111L45.466,31.111L45.466,33.627C45.466,33.718 45.406,33.763 45.285,33.763L43.357,33.763L43.359,33.763ZM46.262,29.78C46.662,29.78 46.934,29.718 47.078,29.593C47.222,29.468 47.295,29.234 47.295,28.889C47.295,28.541 47.223,28.305 47.078,28.18C46.934,28.055 46.662,27.993 46.262,27.993C45.867,27.993 45.595,28.055 45.446,28.18C45.297,28.305 45.222,28.541 45.222,28.889C45.222,29.233 45.297,29.468 45.446,29.593C45.595,29.718 45.867,29.78 46.262,29.78Z" style="fill:rgb(217,230,189);fill-rule:nonzero;"/>
                    </g>
                </g>
            </g>
        </g>
    </g>
</svg>
