<?xml version="1.0" encoding="UTF-8" standalone="no"?><!DOCTYPE svg PUBLIC "-//W3C//DTD SVG 1.1//EN" "http://www.w3.org/Graphics/SVG/1.1/DTD/svg11.dtd"><svg width="100%" height="100%" viewBox="0 0 51 36" version="1.1" xmlns="http://www.w3.org/2000/svg" xmlns:xlink="http://www.w3.org/1999/xlink" xml:space="preserve" xmlns:serif="http://www.serif.com/" style="fill-rule:evenodd;clip-rule:evenodd;stroke-linejoin:round;stroke-miterlimit:2;"><rect id="Artboard1" x="0" y="0" width="50.293" height="35.14" style="fill:none;"/><g><path d="M3.867,13.162c0,-5.636 4.575,-10.211 10.211,-10.211c5.636,0 10.211,4.575 10.211,10.211c0,5.636 -4.575,10.211 -10.211,10.211c-5.636,0 -10.211,-4.575 -10.211,-10.211Z" style="fill:#d9e6bd;"/><path d="M3.867,12.946l1.685,0l0,0.419l-1.685,0l0,-0.419Z" style="fill:#002e21;"/><rect x="13.889" y="2.951" width="0.419" height="1.685" style="fill:#002e21;"/><path d="M7.023,5.8l1.191,1.191l-0.296,0.296l-1.191,-1.191l0.296,-0.296Z" style="fill:#d9e6bd;"/><path d="M20.228,19.066l1.191,1.191l-0.296,0.296l-1.191,-1.191l0.296,-0.296Z" style="fill:#d9e6bd;"/><path d="M8.193,19.326l-1.191,1.191l-0.296,-0.296l1.191,-1.191l0.296,0.296Z" style="fill:#d9e6bd;"/><path d="M21.448,6.101l-1.191,1.191l-0.296,-0.296l1.191,-1.191l0.296,0.296Z" style="fill:#d9e6bd;"/><rect x="13.889" y="21.689" width="0.419" height="1.685" style="fill:#002e21;"/><path d="M22.658,12.953l1.632,0l0,0.419l-1.632,0l0,-0.419Z" style="fill:#002e21;"/><path d="M5.499,13.156c0,-4.746 3.853,-8.6 8.6,-8.6c4.746,0 8.6,3.853 8.6,8.6c0,4.746 -3.853,8.6 -8.6,8.6c-4.746,0 -8.6,-3.853 -8.6,-8.6Zm8.391,-7.986c-2.057,0.053 -3.921,0.885 -5.309,2.212l5.309,5.309l0,-7.521Zm0.418,15.972c2.037,-0.052 3.886,-0.869 5.269,-2.173l-5.269,-5.269l0,7.443Zm5.286,-13.783c-1.385,-1.314 -3.24,-2.136 -5.286,-2.189l-0,7.475l5.286,-5.286Zm-10.996,11.587c1.386,1.318 3.244,2.143 5.293,2.196l0,-7.489l-5.293,5.293Zm5.999,-5.549l5.277,5.277c1.32,-1.381 2.15,-3.233 2.211,-5.277l-7.488,-0Zm7.49,-0.418c-0.045,-2.061 -0.872,-3.932 -2.197,-5.325l-5.325,5.325l7.522,0Zm-8.498,-0l-5.301,-5.301c-1.311,1.391 -2.13,3.251 -2.174,5.301l7.475,-0Zm-7.474,0.418c0.06,2.033 0.881,3.876 2.188,5.254l5.254,-5.254l-7.442,-0Z" style="fill:#002e21;"/><path d="M11.167,13.132c0,-3.87 2.633,-7.012 2.932,-7.012c0.299,0 2.932,3.142 2.932,7.012c-0,3.87 -2.56,7.012 -2.932,7.012c-0.372,0 -2.932,-3.142 -2.932,-7.012Z" style="fill:#002e21;"/><path d="M11.997,13.163c0,-1.099 0.892,-1.991 1.991,-1.991c1.099,0 1.991,0.892 1.991,1.991c0,1.099 -0.892,1.991 -1.991,1.991c-1.099,0 -1.991,-0.892 -1.991,-1.991Z" style="fill:#d9e6bd;"/><path d="M12.974,13.132c0,-0.56 0.454,-1.014 1.014,-1.014c0.56,0 1.014,0.454 1.014,1.014c0,0.56 -0.454,1.014 -1.014,1.014c-0.56,0 -1.014,-0.454 -1.014,-1.014Z" style="fill:#002e21;"/></g><g><path d="M26.034,25.416c-0.12,0 -0.181,-0.045 -0.181,-0.136l0,-6.971c0,-0.091 0.06,-0.136 0.181,-0.136l2.043,0c0.12,0 0.181,0.045 0.181,0.136l0,5.656l1.82,0c0.12,0 0.181,0.045 0.181,0.136l0,1.179c0,0.091 -0.06,0.136 -0.181,0.136l-4.044,0Z" style="fill:#d9e6bd;fill-rule:nonzero;"/><path d="M32.114,25.416c-0.111,0 -0.207,-0.031 -0.289,-0.092l-1.444,-1.087c-0.082,-0.058 -0.123,-0.13 -0.123,-0.217l0,-4.455c0,-0.083 0.041,-0.156 0.123,-0.217l1.444,-1.087c0.082,-0.058 0.178,-0.087 0.289,-0.087l2.838,0c0.116,0 0.212,0.029 0.289,0.087l1.444,1.087c0.082,0.062 0.123,0.134 0.123,0.217l0,4.455c0,0.087 -0.041,0.159 -0.123,0.217l-1.444,1.087c-0.077,0.062 -0.173,0.092 -0.289,0.092l-2.838,0Zm0.852,-1.451l1.134,0c0.202,0 0.303,-0.101 0.303,-0.304l0,-3.733c0,-0.206 -0.101,-0.31 -0.303,-0.31l-1.134,0c-0.197,0 -0.296,0.103 -0.296,0.31l0,3.733c0,0.203 0.099,0.304 0.296,0.304Z" style="fill:#d9e6bd;fill-rule:nonzero;"/><path d="M39.685,25.416c-0.111,0 -0.207,-0.024 -0.289,-0.071l-1.177,-0.81l-1.191,-1.168c-0.053,-0.051 -0.087,-0.082 -0.101,-0.095c-0.014,-0.013 -0.022,-0.044 -0.022,-0.095l0,-2.771c0,-0.051 0.008,-0.083 0.025,-0.098c0.017,-0.014 0.049,-0.045 0.097,-0.092l1.105,-1.076l1.264,-0.896c0.053,-0.033 0.095,-0.053 0.126,-0.06c0.031,-0.007 0.085,-0.011 0.162,-0.011l1.784,0c0.12,0 0.181,0.045 0.181,0.136l0,0.869c0,0.029 -0.004,0.059 -0.011,0.09c-0.007,0.031 -0.032,0.057 -0.076,0.079l-1.357,0.701l-0.888,0.858l0,1.777l0.903,0.858l1.343,0.695c0.039,0.018 0.063,0.04 0.072,0.065c0.01,0.025 0.014,0.053 0.014,0.081l0,0.896c0,0.091 -0.06,0.136 -0.181,0.136l-1.784,0Z" style="fill:#d9e6bd;fill-rule:nonzero;"/><path d="M42.109,25.416c-0.12,0 -0.181,-0.045 -0.181,-0.136l0,-6.971c0,-0.091 0.06,-0.136 0.181,-0.136l2.043,0c0.12,0 0.181,0.045 0.181,0.136l0,2.88l0.895,0l0.477,-1.353l0.433,-1.592c0.01,-0.022 0.032,-0.039 0.069,-0.052c0.036,-0.013 0.09,-0.019 0.162,-0.019l2.08,0c0.12,0 0.181,0.045 0.181,0.136l0,0.679c0,0.04 -0.007,0.079 -0.022,0.117c-0.014,0.038 -0.026,0.072 -0.036,0.101l-0.881,1.592l-0.614,0.869l0.628,0.858l1.061,1.815c0.019,0.025 0.034,0.053 0.043,0.081c0.01,0.029 0.014,0.071 0.014,0.125l0,0.733c0,0.091 -0.06,0.136 -0.181,0.136l-2.152,0c-0.034,0 -0.076,-0.005 -0.126,-0.014c-0.051,-0.009 -0.081,-0.032 -0.09,-0.068l-0.534,-1.722l-0.397,-0.983l-1.011,0l0,2.651c0,0.091 -0.06,0.136 -0.181,0.136l-2.043,0Z" style="fill:#d9e6bd;fill-rule:nonzero;"/><path d="M7.533,33.763c-0.12,0 -0.181,-0.045 -0.181,-0.136l0,-5.661l-1.264,0c-0.12,0 -0.181,-0.045 -0.181,-0.136l0,-1.174c0,-0.091 0.06,-0.136 0.181,-0.136l4.932,0c0.12,0 0.181,0.045 0.181,0.136l0,1.174c0,0.091 -0.06,0.136 -0.181,0.136l-1.264,0l0,5.661c0,0.091 -0.06,0.136 -0.181,0.136l-2.043,0Z" style="fill:#d9e6bd;fill-rule:nonzero;"/><path d="M11.731,33.763c-0.12,0 -0.181,-0.045 -0.181,-0.136l0,-6.971c0,-0.091 0.06,-0.136 0.181,-0.136l3.914,0c0.116,0 0.212,0.024 0.289,0.071l1.661,1.239c0.053,0.036 0.085,0.067 0.097,0.092c0.012,0.025 0.018,0.067 0.018,0.125l0,1.489c0,0.047 -0.024,0.089 -0.072,0.125l-0.794,0.581l-0.672,0.435l0.794,0.793l0.816,1.315c0.019,0.033 0.035,0.064 0.047,0.095c0.012,0.031 0.018,0.068 0.018,0.111l0,0.636c0,0.091 -0.06,0.136 -0.181,0.136l-1.906,0c-0.106,0 -0.178,-0.036 -0.217,-0.109l-1.163,-2.543l-0.542,0l0,2.516c0,0.091 -0.06,0.136 -0.181,0.136l-1.928,0Zm2.903,-3.983c0.4,0 0.672,-0.062 0.816,-0.187c0.144,-0.125 0.217,-0.359 0.217,-0.704c0,-0.348 -0.072,-0.584 -0.217,-0.709c-0.144,-0.125 -0.416,-0.187 -0.816,-0.187c-0.395,0 -0.667,0.062 -0.816,0.187c-0.149,0.125 -0.224,0.361 -0.224,0.709c0,0.344 0.075,0.579 0.224,0.704c0.149,0.125 0.421,0.187 0.816,0.187Z" style="fill:#d9e6bd;fill-rule:nonzero;"/><path d="M18.568,33.763c-0.12,0 -0.181,-0.045 -0.181,-0.136l0,-5.037c0,-0.047 0.024,-0.101 0.072,-0.163l1.711,-1.826c0.053,-0.054 0.13,-0.081 0.231,-0.081l2.39,0c0.106,0 0.183,0.027 0.231,0.081l1.719,1.826c0.048,0.051 0.072,0.105 0.072,0.163l0,5.037c0,0.091 -0.06,0.136 -0.181,0.136l-2.043,0c-0.12,0 -0.181,-0.045 -0.181,-0.136l0,-2.309l-1.61,0l0,2.309c0,0.091 -0.06,0.136 -0.181,0.136l-2.051,0Zm3.033,-3.613c0.443,0 0.743,-0.073 0.899,-0.22c0.156,-0.147 0.235,-0.427 0.235,-0.839c0,-0.413 -0.078,-0.693 -0.235,-0.839c-0.156,-0.147 -0.456,-0.22 -0.899,-0.22c-0.438,0 -0.735,0.073 -0.892,0.22c-0.156,0.147 -0.235,0.427 -0.235,0.839c0,0.413 0.078,0.693 0.235,0.839c0.156,0.147 0.454,0.22 0.892,0.22Z" style="fill:#d9e6bd;fill-rule:nonzero;"/><path d="M27.97,33.763c-0.111,0 -0.207,-0.024 -0.289,-0.071l-1.177,-0.81l-1.191,-1.168c-0.053,-0.051 -0.087,-0.082 -0.101,-0.095c-0.014,-0.013 -0.022,-0.044 -0.022,-0.095l0,-2.771c0,-0.051 0.008,-0.083 0.025,-0.098c0.017,-0.014 0.049,-0.045 0.097,-0.092l1.105,-1.076l1.264,-0.896c0.053,-0.033 0.095,-0.053 0.126,-0.06c0.031,-0.007 0.085,-0.011 0.162,-0.011l1.784,0c0.12,0 0.181,0.045 0.181,0.136l0,0.869c0,0.029 -0.004,0.059 -0.011,0.09c-0.007,0.031 -0.032,0.057 -0.076,0.079l-1.357,0.701l-0.888,0.858l0,1.777l0.903,0.858l1.343,0.695c0.039,0.018 0.063,0.04 0.072,0.065c0.01,0.025 0.014,0.053 0.014,0.081l0,0.896c0,0.091 -0.06,0.136 -0.181,0.136l-1.784,0Z" style="fill:#d9e6bd;fill-rule:nonzero;"/><path d="M30.439,33.763c-0.12,0 -0.181,-0.045 -0.181,-0.136l0,-6.971c0,-0.091 0.06,-0.136 0.181,-0.136l2.043,0c0.12,0 0.181,0.045 0.181,0.136l0,2.88l0.895,0l0.477,-1.353l0.433,-1.592c0.01,-0.022 0.032,-0.039 0.069,-0.052c0.036,-0.013 0.09,-0.019 0.162,-0.019l2.08,0c0.12,0 0.181,0.045 0.181,0.136l0,0.679c0,0.04 -0.007,0.079 -0.022,0.117c-0.014,0.038 -0.026,0.072 -0.036,0.101l-0.881,1.592l-0.614,0.869l0.628,0.858l1.061,1.815c0.019,0.025 0.034,0.053 0.043,0.081c0.01,0.029 0.014,0.071 0.014,0.125l0,0.733c0,0.091 -0.06,0.136 -0.181,0.136l-2.152,0c-0.034,0 -0.076,-0.005 -0.126,-0.014c-0.051,-0.009 -0.081,-0.032 -0.09,-0.068l-0.534,-1.722l-0.397,-0.983l-1.011,0l0,2.651c0,0.091 -0.06,0.136 -0.181,0.136l-2.043,0Z" style="fill:#d9e6bd;fill-rule:nonzero;"/><path d="M37.585,33.763c-0.12,0 -0.181,-0.045 -0.181,-0.136l0,-6.971c0,-0.091 0.06,-0.136 0.181,-0.136l5.033,0c0.12,0 0.181,0.045 0.181,0.136l0,1.174c0,0.091 -0.06,0.136 -0.181,0.136l-2.809,0l0,1.543l2.563,0c0.12,0 0.181,0.045 0.181,0.136l0,0.994c0,0.091 -0.06,0.136 -0.181,0.136l-2.563,0l0,1.538l2.809,0c0.12,0 0.181,0.045 0.181,0.136l0,1.179c0,0.091 -0.06,0.136 -0.181,0.136l-5.033,0Z" style="fill:#d9e6bd;fill-rule:nonzero;"/><path d="M43.359,33.763c-0.12,0 -0.181,-0.045 -0.181,-0.136l0,-6.971c0,-0.091 0.06,-0.136 0.181,-0.136l3.914,0c0.116,0 0.212,0.024 0.289,0.071l1.661,1.239c0.053,0.036 0.085,0.067 0.097,0.092c0.012,0.025 0.018,0.067 0.018,0.125l0,1.489c0,0.047 -0.024,0.089 -0.072,0.125l-0.794,0.581l-0.672,0.435l0.794,0.793l0.816,1.315c0.019,0.033 0.035,0.064 0.047,0.095c0.012,0.031 0.018,0.068 0.018,0.111l0,0.636c0,0.091 -0.06,0.136 -0.181,0.136l-1.906,0c-0.106,0 -0.178,-0.036 -0.217,-0.109l-1.163,-2.543l-0.542,0l0,2.516c0,0.091 -0.06,0.136 -0.181,0.136l-1.928,0Zm2.903,-3.983c0.4,0 0.672,-0.062 0.816,-0.187c0.144,-0.125 0.217,-0.359 0.217,-0.704c0,-0.348 -0.072,-0.584 -0.217,-0.709c-0.144,-0.125 -0.416,-0.187 -0.816,-0.187c-0.395,0 -0.667,0.062 -0.816,0.187c-0.149,0.125 -0.224,0.361 -0.224,0.709c0,0.344 0.075,0.579 0.224,0.704c0.149,0.125 0.421,0.187 0.816,0.187Z" style="fill:#d9e6bd;fill-rule:nonzero;"/></g></svg>